<?xml version="1.0" standalone="no"?>
<!DOCTYPE svg PUBLIC "-//W3C//DTD SVG 20010904//EN"
 "http://www.w3.org/TR/2001/REC-SVG-20010904/DTD/svg10.dtd">
<svg version="1.0" xmlns="http://www.w3.org/2000/svg"
 width="965.000000pt" height="907.000000pt" viewBox="0 0 965.000000 907.000000"
 preserveAspectRatio="xMidYMid meet">

<g transform="translate(0.000000,907.000000) scale(0.100000,-0.100000)"
fill="#000000" stroke="none">
<path d="M0 8467 c0 -515 2 -606 15 -623 20 -26 20 -127 0 -144 -13 -11 -15
-69 -15 -415 l0 -403 30 -4 c16 -2 175 -1 352 3 706 17 3571 29 3670 16 77
-11 67 -28 -32 -56 -78 -23 -141 -56 -226 -119 -25 -18 -64 -39 -88 -47 -51
-18 -276 -35 -461 -35 -71 0 -137 -5 -145 -10 -19 -12 -36 -11 248 -15 134 -1
246 -5 249 -9 8 -7 -32 -40 -84 -68 -24 -13 -43 -28 -43 -35 0 -47 -212 -53
-1917 -53 l-1553 0 0 -178 0 -178 72 -86 c147 -174 224 -263 258 -299 86 -92
92 -112 27 -109 -17 1 -91 2 -164 1 -119 -1 -133 -3 -142 -20 -20 -36 -44
-278 -48 -475 -4 -189 -4 -198 14 -191 44 18 88 22 189 16 l109 -6 -3 -105
c-2 -58 -8 -122 -13 -142 -5 -21 -14 -82 -19 -135 -23 -259 -32 -342 -40 -388
-17 -90 -20 -140 -11 -155 21 -32 29 1 51 235 5 61 14 124 19 140 5 17 12 73
15 125 4 52 11 113 16 135 5 22 10 70 10 108 0 37 4 75 9 85 5 9 13 35 18 57
7 36 11 40 48 46 22 4 62 6 90 6 48 -2 49 -3 56 -36 4 -19 1 -84 -6 -145 -7
-61 -20 -192 -29 -291 -24 -264 -44 -422 -56 -444 -5 -11 -22 -21 -37 -23 -16
-2 6 -7 47 -11 66 -6 399 -11 1555 -22 312 -3 481 -10 522 -21 14 -4 20 -11
16 -20 -3 -8 3 -21 13 -28 17 -13 16 -14 -7 -27 -13 -7 -67 -15 -119 -17 -89
-5 -1090 8 -2020 26 -223 4 -413 6 -422 4 -17 -4 -18 -27 -18 -313 l0 -309 73
-2 c117 -3 1108 -14 1937 -21 91 -1 226 0 300 2 79 2 168 -1 214 -8 43 -7 93
-10 110 -7 32 6 262 -17 273 -27 3 -4 7 -18 9 -33 1 -14 11 -32 22 -40 11 -7
23 -25 26 -39 4 -14 11 -25 16 -25 5 0 14 -18 20 -39 8 -30 29 -56 89 -110 43
-39 86 -86 94 -104 9 -17 29 -40 46 -50 17 -10 31 -23 31 -29 0 -6 17 -27 39
-47 32 -30 39 -45 45 -89 8 -64 15 -84 27 -76 26 16 31 -61 28 -408 l-4 -357
-40 -6 c-69 -8 -316 -12 -320 -4 -3 4 -23 5 -44 2 -22 -3 -51 -3 -65 1 -46 11
-52 25 -45 117 4 46 14 212 23 369 21 364 28 422 55 456 12 15 18 31 14 35 -4
4 -487 9 -1073 12 -586 3 -1166 11 -1290 16 -124 6 -312 12 -418 13 l-192 3 0
-1382 0 -1383 965 0 965 0 1 48 c1 116 19 476 33 682 9 124 21 306 26 405 6
99 14 245 20 325 5 80 9 186 9 236 1 135 -14 127 239 119 205 -8 213 -9 235
-31 12 -13 28 -24 36 -24 11 0 10 -3 -3 -13 -13 -10 -21 -36 -28 -98 -11 -103
-11 -94 -5 -153 4 -35 2 -53 -8 -63 -11 -11 -13 -34 -10 -96 3 -45 4 -89 4
-97 -1 -8 -2 -74 -3 -147 -1 -91 -5 -136 -14 -145 -16 -16 -15 -39 2 -32 8 3
17 1 21 -5 3 -6 0 -14 -8 -17 -27 -10 -36 -57 -36 -169 1 -178 -7 -327 -20
-374 -7 -23 -10 -50 -7 -58 7 -18 -19 -83 -33 -83 -6 0 -17 -10 -25 -23 -13
-19 -13 -29 -3 -62 7 -22 22 -50 34 -63 13 -12 23 -31 23 -42 0 -20 7 -20
2599 -20 2073 0 2599 3 2598 13 0 6 1 34 1 60 2 43 4 48 21 42 25 -8 37 25 21
56 -10 17 -9 24 4 37 13 13 18 13 31 2 14 -12 18 -12 25 0 5 8 4 22 -1 33 -10
17 -12 18 -29 2 -19 -18 -34 -7 -24 18 6 17 -11 31 -26 22 -8 -5 -8 -11 0 -20
8 -10 8 -15 0 -20 -18 -11 -22 -1 -22 62 0 35 -6 64 -14 74 -11 13 -16 69 -21
249 -6 220 -7 232 -26 239 -19 7 -19 8 -2 15 16 6 17 14 11 72 -6 61 -12 201
-20 489 -5 147 -3 135 -22 135 -15 0 -16 9 -11 68 5 51 3 73 -8 89 -13 18 -11
24 16 62 l31 41 196 0 c109 0 202 -4 208 -8 7 -4 14 -57 18 -137 4 -71 11
-175 16 -230 5 -55 12 -173 14 -262 3 -90 10 -171 16 -182 5 -11 10 -33 10
-49 0 -16 6 -45 14 -63 16 -40 30 -149 19 -150 -60 -5 -78 -9 -87 -21 -6 -8
-19 -17 -28 -21 -14 -5 -18 -18 -18 -52 0 -37 3 -45 19 -45 17 0 18 -4 9 -47
-8 -34 -7 -48 1 -51 24 -8 -1 -111 -39 -160 -11 -14 -20 -33 -20 -43 0 -20 24
-26 35 -9 3 5 26 10 51 10 37 0 46 4 54 23 6 15 9 17 9 5 1 -9 4 -23 7 -31 4
-12 -6 -16 -43 -20 -43 -4 -170 -35 -183 -45 -3 -2 2 -9 10 -15 43 -34 44 -44
1 -90 -39 -42 -40 -45 -34 -95 6 -50 7 -52 37 -52 26 0 36 7 59 42 15 23 27
50 27 60 0 11 7 18 20 18 21 0 26 -10 11 -25 -5 -6 -12 -29 -16 -52 l-7 -43
86 0 c47 0 86 3 86 6 0 15 -22 44 -34 44 -16 0 -41 28 -33 37 11 11 98 -19
107 -38 28 -52 -16 -49 776 -49 l734 0 0 1966 0 1966 -22 19 -23 20 23 15 c20
15 22 24 21 108 0 50 -5 116 -10 146 -5 30 -16 116 -24 190 -9 74 -23 191 -32
260 -8 69 -16 148 -18 177 -2 28 -5 55 -8 60 -10 17 -49 322 -43 338 5 14 17
16 71 13 l65 -3 0 168 c0 142 -2 167 -15 167 -19 0 -19 11 0 36 12 16 14 82
15 412 l0 392 -837 1 c-1749 1 -2052 4 -2121 22 -44 12 -74 27 -97 50 -81 80
-114 105 -151 116 -21 7 -46 15 -54 18 -23 7 56 32 120 38 115 10 241 15 403
15 92 0 167 4 167 9 0 4 -194 10 -430 13 -237 3 -433 8 -437 12 -4 3 -2 11 5
18 8 8 -16 25 -101 67 -111 55 -112 55 -77 62 57 12 475 22 700 17 14 0 264 0
555 2 292 1 775 -2 1075 -5 300 -4 637 -8 750 -10 113 -1 278 0 368 3 l162 5
0 146 0 147 -97 -3 c-54 -2 -1819 -5 -3923 -8 -2104 -2 -3854 -7 -3890 -9
-106 -8 -1488 -12 -1496 -4 -4 4 -1 14 6 23 9 11 32 15 83 15 40 0 106 7 149
17 71 15 78 18 83 44 4 16 4 32 1 37 -3 5 1 18 9 28 12 16 27 19 113 19 116 0
127 -6 168 -92 22 -47 29 -54 48 -49 13 3 55 9 94 12 l72 7 5 36 c4 20 7 43 8
51 2 12 26 16 122 21 252 14 310 13 332 -2 24 -17 43 -51 43 -76 0 -37 11 -41
90 -29 l75 12 13 44 c21 72 24 75 78 74 27 0 136 -2 242 -3 182 -3 194 -4 213
-24 11 -12 22 -33 25 -47 11 -50 11 -50 78 -50 l65 0 11 43 c19 77 -1 72 288
74 298 2 297 2 310 -77 7 -43 8 -44 44 -43 61 1 68 7 68 61 0 30 5 54 14 61
24 20 573 12 606 -9 6 -4 14 -29 18 -56 l7 -49 43 -2 c48 -2 67 19 60 68 -3
18 1 34 11 43 21 18 132 26 390 27 245 1 247 0 236 -76 -7 -50 1 -62 45 -66
35 -4 35 -4 40 42 10 83 -7 80 339 77 l306 -3 3 -25 c1 -14 5 -39 7 -56 6 -32
6 -32 93 -25 7 1 12 15 12 35 0 19 5 38 11 42 13 8 629 8 637 0 3 -3 8 -23 11
-43 5 -32 10 -38 34 -41 40 -5 57 14 57 63 l0 42 73 4 c39 2 178 4 307 4 l235
0 7 -49 c8 -58 18 -66 81 -66 l47 0 0 39 c0 76 -18 72 273 70 144 0 272 -5
284 -10 16 -6 23 -17 23 -36 0 -43 13 -54 72 -60 65 -7 82 6 92 66 10 65 22
68 316 72 l255 4 10 -63 c6 -36 16 -67 25 -72 8 -5 41 -10 73 -10 l57 0 0 33
c0 27 9 49 36 85 1 2 104 6 228 9 171 4 230 2 241 -7 10 -8 15 -30 15 -62 0
-33 5 -50 14 -54 8 -3 52 -6 97 -7 83 -2 83 -2 98 28 8 17 22 46 32 65 l18 35
185 -1 c206 -1 216 -4 216 -63 0 -47 9 -59 48 -67 l32 -6 0 921 0 921 -4825 0
-4825 0 0 -603z m4641 76 c-9 -16 -10 -14 -11 12 0 21 3 26 11 18 8 -8 8 -16
0 -30z m2139 0 c0 -8 -14 -13 -37 -12 -31 0 -34 2 -17 9 12 4 24 16 28 26 6
16 8 16 16 4 6 -8 10 -21 10 -27z m-2845 7 c15 -16 15 -20 3 -20 -8 0 -23 9
-33 20 -15 16 -15 20 -3 20 8 0 23 -9 33 -20z m793 4 c18 -8 32 -17 32 -20 0
-2 -18 -4 -40 -4 -33 0 -40 3 -40 20 0 24 7 25 48 4z m96 0 c9 -22 8 -24 -9
-24 -8 0 -15 9 -15 20 0 24 15 27 24 4z m1366 -15 c0 -5 -7 -9 -15 -9 -9 0
-15 9 -15 21 0 18 2 19 15 9 8 -7 15 -16 15 -21z m640 1 c0 -18 6 -33 15 -36
10 -4 15 -20 15 -46 0 -22 4 -47 10 -57 5 -10 12 -83 15 -162 3 -79 10 -173
15 -209 9 -58 32 -425 34 -540 l1 -45 -40 0 -40 0 -1 115 c0 63 -6 207 -12
320 -10 187 -19 393 -26 608 -1 45 1 82 6 82 4 0 8 -14 8 -30z m60 10 c0 -11
-4 -20 -10 -20 -5 0 -10 9 -10 20 0 11 5 20 10 20 6 0 10 -9 10 -20z m104 1
c17 -18 16 -19 -2 -25 -42 -14 -89 14 -65 37 13 14 50 7 67 -12z m519 0 c6
-24 0 -31 -28 -31 -31 0 -37 11 -18 32 21 23 39 23 46 -1z m-5720 -23 c-7 -13
-33 -9 -33 5 0 8 3 16 6 20 8 8 33 -16 27 -25z m1381 -12 c-3 -9 -12 -16 -19
-16 -10 0 -13 -21 -14 -77 0 -43 -5 -141 -11 -218 -6 -77 -12 -198 -14 -270
-11 -350 -19 -485 -32 -496 -7 -6 -25 -9 -41 -7 -33 4 -32 -17 -9 238 9 102
21 241 26 310 12 157 29 364 37 453 5 58 4 67 -11 67 -11 0 -16 9 -16 28 1 24
2 25 14 10 19 -26 62 -23 70 5 6 19 7 20 16 5 6 -9 7 -23 4 -32z m1316 30 c25
4 40 3 40 -4 0 -14 -22 -18 -87 -14 -44 3 -52 6 -42 18 8 10 16 11 30 4 10 -6
36 -7 59 -4z m810 -7 c0 -5 -4 -9 -10 -9 -5 0 -10 7 -10 16 0 8 5 12 10 9 6
-3 10 -10 10 -16z m164 5 c4 -10 1 -14 -6 -12 -15 5 -23 28 -10 28 5 0 13 -7
16 -16z m1966 -7 c8 -3 -5 -6 -29 -6 -37 -1 -42 1 -31 14 8 10 18 12 29 6 9
-5 23 -11 31 -14z m813 -8 c-17 -17 -37 -1 -22 17 8 10 15 12 23 4 7 -7 7 -13
-1 -21z m-5635 -6 c48 -16 56 -16 105 -1 66 20 128 22 189 7 41 -11 53 -10 83
4 27 13 35 14 35 3 0 -29 -50 -36 -258 -36 -137 0 -212 4 -219 11 -8 8 -13 8
-17 0 -11 -17 -73 -13 -80 5 -3 9 -4 19 -2 22 7 12 109 2 164 -15z m3852 17
c12 -8 9 -10 -12 -10 -16 0 -28 5 -28 10 0 13 20 13 40 0z m205 0 c4 -6 -11
-10 -37 -9 -36 1 -39 2 -18 9 36 11 48 11 55 0z m-4795 -14 c0 -8 -4 -18 -10
-21 -5 -3 -10 3 -10 14 0 12 5 21 10 21 6 0 10 -6 10 -14z m1398 7 c-10 -2
-28 -2 -40 0 -13 2 -5 4 17 4 22 1 32 -1 23 -4z m380 0 c-21 -2 -55 -2 -75 0
-21 2 -4 4 37 4 41 0 58 -2 38 -4z m124 -5 c-17 -8 -26 -8 -34 0 -9 9 -4 12
23 11 32 0 33 -1 11 -11z m241 5 c-7 -2 -21 -2 -30 0 -10 3 -4 5 12 5 17 0 24
-2 18 -5z m100 0 c-7 -2 -19 -2 -25 0 -7 3 -2 5 12 5 14 0 19 -2 13 -5z m3140
0 c-29 -2 -77 -2 -105 0 -29 2 -6 3 52 3 58 0 81 -1 53 -3z m554 1 c-3 -3 -12
-4 -19 -1 -8 3 -5 6 6 6 11 1 17 -2 13 -5z m166 -1 c-13 -2 -35 -2 -50 0 -16
2 -5 4 22 4 28 0 40 -2 28 -4z m477 -7 c0 -8 -4 -18 -10 -21 -5 -3 -10 -4 -10
-1 0 2 -3 11 -6 20 -4 11 -1 16 10 16 9 0 16 -6 16 -14z m1130 -6 c10 -18 8
-20 -25 -20 -33 0 -35 2 -25 20 6 11 17 20 25 20 8 0 19 -9 25 -20z m-5698
-221 c0 -267 -13 -841 -19 -851 -5 -9 -45 -10 -66 -2 -8 3 -13 13 -11 22 2 9
8 123 14 252 6 129 15 280 20 335 5 55 10 127 11 160 2 89 20 298 26 308 18
29 25 -32 25 -224z m-1487 212 c14 -24 7 -167 -40 -766 -8 -104 -16 -217 -18
-250 l-2 -60 -33 -3 c-38 -4 -68 14 -53 32 9 11 34 219 51 431 5 61 14 142 20
180 5 39 12 104 14 145 3 41 10 102 15 135 6 33 11 79 11 103 l0 42 -186 0
c-103 0 -183 4 -180 9 7 10 394 12 401 2z m2238 -31 c9 -71 -5 -1024 -15
-1037 -6 -7 -16 -13 -23 -13 -31 0 -33 26 -24 340 5 173 11 361 13 417 3 58 1
105 -5 108 -5 4 -5 13 0 24 6 10 13 59 17 109 5 62 11 92 19 92 7 0 15 -18 18
-40z m1488 18 c1 -13 1 -27 0 -32 -1 -5 3 -32 9 -60 5 -28 12 -143 15 -256 5
-204 8 -273 21 -552 l7 -148 -35 0 -35 0 -8 278 c-13 454 -14 714 -2 755 11
41 26 49 28 15z m2214 13 c7 -12 -12 -24 -25 -16 -11 7 -4 25 10 25 5 0 11 -4
15 -9z m340 -1 c4 -6 -16 -10 -52 -9 -44 1 -52 3 -33 9 36 12 78 12 85 0z
m530 0 c14 -6 4 -9 -38 -9 -36 -1 -56 3 -52 9 7 12 62 12 90 0z m240 0 c14 -6
4 -9 -38 -9 -36 -1 -56 3 -52 9 7 12 62 12 90 0z m-8402 -15 c4 -8 2 -17 -3
-20 -6 -4 -10 3 -10 14 0 25 6 27 13 6z m4338 -7 c1 -13 2 -43 4 -68 1 -25 5
-171 9 -325 4 -154 9 -362 12 -462 l5 -182 -25 -7 c-13 -3 -33 -4 -43 -2 -17
3 -18 24 -15 453 5 543 6 587 15 603 13 20 37 14 38 -10z m3387 15 c-10 -2
-28 -2 -40 0 -13 2 -5 4 17 4 22 1 32 -1 23 -4z m277 -50 c4 -21 11 -51 16
-68 5 -16 18 -104 29 -195 25 -203 36 -281 54 -390 26 -148 40 -263 41 -315 0
-45 -2 -50 -23 -53 -13 -2 -30 2 -38 9 -8 6 -16 10 -17 8 -17 -25 -37 -86 -37
-109 0 -17 -5 -30 -10 -30 -7 0 -10 27 -8 73 3 66 5 72 26 75 21 3 22 8 22 80
0 42 -7 108 -15 147 -8 38 -15 94 -15 124 0 30 -4 82 -10 115 -5 34 -16 142
-25 241 -8 99 -20 203 -26 232 -7 37 -7 58 1 73 16 30 28 24 35 -17z m-8162
20 c-7 -2 -21 -2 -30 0 -10 3 -4 5 12 5 17 0 24 -2 18 -5z m6717 -32 c0 -16 4
-41 10 -56 5 -14 12 -76 16 -138 3 -61 8 -115 11 -120 2 -4 11 -92 19 -195 8
-103 20 -252 28 -332 7 -80 11 -148 9 -152 -7 -13 -68 -9 -89 6 -15 12 -17 18
-8 33 12 19 9 93 -20 633 -21 361 -21 350 4 350 15 0 20 -7 20 -29z m744 -24
c9 -30 21 -107 27 -173 17 -189 26 -276 49 -479 11 -104 24 -221 27 -258 l5
-68 -43 3 -44 3 -3 165 c-1 90 -7 169 -12 174 -6 6 -10 42 -10 81 0 40 -6 141
-14 226 -26 275 -28 323 -17 352 6 15 13 27 15 27 3 0 12 -24 20 -53z m-7387
-28 c-8 -85 -37 -338 -47 -409 -16 -113 -40 -321 -50 -430 -8 -87 -13 -108
-30 -122 -11 -9 -29 -14 -41 -11 -17 5 -20 11 -15 32 4 14 15 91 26 171 11 80
24 177 30 215 6 39 15 102 21 140 5 39 14 81 19 95 6 14 14 59 20 100 9 71 13
96 41 233 14 73 33 62 26 -14z m707 55 c4 -9 0 -82 -8 -163 -8 -80 -20 -207
-26 -281 -7 -74 -18 -201 -26 -281 -8 -80 -14 -172 -14 -204 0 -40 -5 -64 -17
-77 -17 -19 -58 -24 -67 -9 -6 9 13 171 55 466 11 83 25 188 30 235 5 47 12
103 14 125 16 139 29 205 40 205 7 0 16 -7 19 -16z m7378 -896 c-9 -9 -12 -1
-11 33 l1 44 11 -33 c7 -24 7 -36 -1 -44z m-1455 -185 c-2 -16 -4 -3 -4 27 0
30 2 43 4 28 2 -16 2 -40 0 -55z m-4480 35 c-3 -7 -5 -2 -5 12 0 14 2 19 5 13
2 -7 2 -19 0 -25z m5220 -35 c-2 -16 -4 -5 -4 22 0 28 2 40 4 28 2 -13 2 -35
0 -50z m-5947 17 c0 -16 -4 -32 -10 -35 -6 -4 -10 10 -10 35 0 25 4 39 10 35
6 -3 10 -19 10 -35z m2676 -525 c26 -17 56 -79 52 -108 -2 -16 -11 -23 -34
-25 -27 -3 -32 1 -46 37 -22 55 -61 66 -95 27 -19 -23 -23 -38 -23 -100 0
-107 23 -156 72 -156 23 0 58 39 58 65 0 22 4 25 40 25 l41 0 -7 -37 c-20
-112 -157 -157 -237 -78 -66 67 -62 287 6 344 39 31 129 35 173 6z m489 -39
c86 -36 91 -238 9 -336 -48 -57 -135 -63 -193 -14 -88 73 -49 298 61 353 44
22 63 22 123 -3z m-1234 -156 c16 -41 34 -84 39 -95 21 -47 70 -178 67 -181
-1 -2 -23 -12 -47 -23 l-45 -20 -94 92 c-101 100 -102 99 -45 -36 19 -43 34
-84 34 -91 0 -11 -39 -36 -55 -36 -5 0 -23 40 -55 115 -18 44 -80 196 -91 223
-8 21 -4 25 38 43 l47 20 88 -88 c48 -48 90 -84 93 -81 3 3 -13 52 -35 108
-22 56 -40 103 -38 104 2 0 12 6 23 13 34 21 46 10 76 -67z m1639 45 l30 -16
0 -134 c0 -74 3 -135 8 -135 4 0 27 47 50 105 24 58 48 105 52 105 23 0 60
-21 60 -34 0 -13 -143 -342 -153 -352 -2 -3 -24 7 -48 20 l-44 25 3 133 c3 87
0 130 -6 123 -8 -8 -32 -61 -83 -184 -8 -19 -14 -22 -37 -16 -41 10 -46 20
-30 57 9 18 44 97 78 176 38 85 68 142 77 142 8 0 27 -7 43 -15z m507 -291
c18 -14 31 -29 28 -33 -2 -5 -11 -33 -19 -62 -8 -30 -24 -85 -35 -124 -11 -38
-18 -71 -16 -73 1 -2 35 40 74 93 39 52 75 95 79 95 4 0 18 -9 31 -19 28 -21
24 -41 -17 -87 -15 -17 -63 -77 -107 -132 -44 -56 -87 -102 -96 -102 -8 0 -27
13 -42 28 l-28 29 31 117 c16 65 30 123 30 129 0 12 -21 -9 -74 -73 -85 -103
-83 -102 -111 -84 -14 9 -25 24 -23 32 4 18 240 291 252 292 5 0 24 -12 43
-26z m-2765 8 c2 -5 66 -55 143 -112 77 -57 144 -107 149 -111 10 -9 -30 -59
-47 -59 -5 0 -20 9 -34 20 -34 27 -42 25 -87 -17 -38 -35 -38 -36 -26 -76 12
-39 11 -42 -15 -65 -15 -13 -31 -20 -35 -15 -9 9 -142 352 -144 370 0 6 17 25
39 42 43 32 51 36 57 23z m1455 -181 c1 -11 -4 -25 -12 -31 -11 -9 -12 -7 -8
9 4 16 0 21 -13 22 -18 0 -18 1 1 9 29 12 31 12 32 -9z m63 9 c12 -8 11 -10
-7 -10 -12 0 -25 5 -28 10 -8 13 15 13 35 0z m-396 -12 c-3 -4 -14 -8 -25 -8
-11 0 -18 4 -15 8 2 4 14 8 25 8 11 0 17 -4 15 -8z m63 -14 c-2 -2 -12 -1 -22
3 -18 6 -18 7 1 13 17 7 33 -5 21 -16z m150 20 c-3 -3 -12 -4 -19 -1 -8 3 -5
6 6 6 11 1 17 -2 13 -5z m301 -11 c2 -7 -4 -13 -15 -13 -14 0 -15 2 -4 9 11 7
10 10 -5 14 -18 6 -18 6 0 4 11 -1 21 -8 24 -14z m72 -8 c7 -9 21 -13 31 -10
9 3 23 0 30 -8 7 -7 25 -11 40 -9 17 3 35 -2 44 -12 9 -9 27 -16 40 -16 31 0
55 -10 55 -22 0 -7 -5 -6 -14 1 -9 8 -21 8 -39 2 -18 -7 -30 -6 -43 3 -9 7
-26 11 -37 8 -10 -3 -23 1 -29 9 -7 11 -11 11 -15 2 -2 -8 -22 -13 -44 -13
-25 0 -38 4 -34 10 4 6 11 8 16 5 5 -4 17 -1 26 4 17 10 17 11 -2 12 -11 1
-30 3 -42 4 -15 2 -20 -2 -15 -13 4 -12 1 -14 -12 -9 -10 4 -19 7 -21 7 -2 0
3 14 11 30 17 33 35 38 54 15z m-725 -15 c-3 -5 -10 -10 -16 -10 -5 0 -9 5 -9
10 0 6 7 10 16 10 8 0 12 -4 9 -10z m50 0 c-3 -5 -12 -7 -20 -3 -21 7 -19 13
6 13 11 0 18 -4 14 -10z m-51 -22 c28 -3 28 -4 11 -18 -11 -9 -16 -10 -11 -2
12 21 -48 14 -72 -8 -20 -19 -22 -19 -32 -2 -9 16 -11 16 -25 -2 -8 -11 -15
-16 -16 -10 0 5 -4 0 -8 -10 -7 -18 -8 -18 -14 -3 -3 9 -2 17 3 17 18 0 10 20
-7 21 -30 2 50 22 89 22 23 1 34 5 30 12 -3 5 1 5 9 -2 8 -6 27 -13 43 -15z
m913 -4 c-3 -3 -12 -4 -19 -1 -8 3 -5 6 6 6 11 1 17 -2 13 -5z m18 -54 c3 -6
-1 -7 -9 -4 -18 7 -21 14 -7 14 6 0 13 -4 16 -10z m-1221 -14 c-21 -15 -30
-14 -19 3 3 6 14 11 23 11 13 0 13 -2 -4 -14z m1331 4 c18 -8 17 -9 -7 -9 -16
-1 -28 4 -28 9 0 12 8 12 35 0z m-2299 -82 c44 -40 108 -98 143 -128 l63 -55
-22 -28 c-12 -16 -28 -27 -35 -25 -20 4 -285 247 -285 260 0 15 30 48 44 48 7
0 48 -33 92 -72z m964 48 c0 -11 -19 -15 -25 -6 -3 5 1 10 9 10 9 0 16 -2 16
-4z m-56 -15 c4 -5 -3 -7 -14 -4 -11 3 -27 0 -35 -7 -17 -14 -31 -8 -20 9 8
13 62 15 69 2z m1523 -11 c3 -11 9 -17 14 -14 13 7 79 -18 73 -28 -3 -4 3 -8
13 -8 17 -1 17 -2 -1 -15 -24 -18 -36 -19 -36 -2 0 7 -16 19 -35 27 -19 8 -35
19 -35 26 0 7 -8 18 -17 23 -17 10 -17 10 0 11 11 0 21 -9 24 -20z m1043 -70
c65 -84 65 -83 45 -104 -26 -26 -50 -19 -80 24 -31 44 -40 47 -73 24 -28 -19
-28 -30 3 -70 31 -40 31 -48 1 -67 -23 -15 -24 -14 -56 28 -35 47 -39 47 -88
5 l-24 -20 34 -47 c18 -27 36 -51 41 -54 10 -7 -39 -53 -50 -46 -14 9 -123
163 -123 173 1 5 33 32 72 59 39 28 76 55 82 60 24 23 142 104 151 105 6 0 35
-32 65 -70z m-2646 44 c5 -14 9 -14 24 -3 16 12 16 12 -1 -6 -17 -19 -17 -19
-39 3 -18 18 -19 22 -6 22 9 0 19 -7 22 -16z m-24 -13 c0 -5 -7 -14 -15 -21
-12 -10 -18 -9 -32 5 -16 17 -16 17 5 11 13 -5 22 -3 22 3 0 6 5 11 10 11 6 0
10 -4 10 -9z m1789 -47 c9 -9 -5 -11 -36 -7 -18 3 -30 10 -27 15 6 9 53 3 63
-8z m-1814 -4 c7 -12 -2 -12 -30 0 -19 8 -19 9 2 9 12 1 25 -3 28 -9z m-70
-16 c-9 -9 -19 -13 -23 -10 -3 4 0 11 8 16 24 15 33 11 15 -6z m1855 -4 c0 -5
-5 -10 -11 -10 -5 0 -7 5 -4 10 3 6 8 10 11 10 2 0 4 -4 4 -10z m62 -25 c-4
-25 -13 -31 -25 -18 -6 5 19 43 28 43 1 0 0 -11 -3 -25z m34 -12 c-4 -9 -1
-22 6 -30 10 -13 9 -15 -7 -12 -21 4 -31 30 -21 55 3 8 11 12 17 9 6 -4 8 -14
5 -22z m49 -51 c-8 -8 -25 10 -25 26 0 13 2 13 14 -4 8 -10 13 -21 11 -22z
m-2105 2 c0 -8 -5 -12 -10 -9 -6 4 -8 11 -5 16 9 14 15 11 15 -7z m2130 -33
c0 -11 6 -21 13 -24 6 -2 9 -8 5 -12 -9 -9 -48 36 -41 47 9 15 23 8 23 -11z
m60 -23 c0 -12 -28 3 -34 18 -4 11 -2 12 14 1 11 -6 20 -15 20 -19z m-2270 12
c0 -5 -4 -10 -10 -10 -5 0 -10 5 -10 10 0 6 5 10 10 10 6 0 10 -4 10 -10z
m-27 -14 c6 -14 0 -26 -13 -26 -3 0 -6 9 -6 20 0 23 11 27 19 6z m-701 -22
c33 -18 58 -50 64 -81 l6 -33 67 -1 c36 -1 76 -4 89 -7 l22 -7 -22 -32 -23
-32 -82 6 c-73 5 -83 4 -83 -10 0 -10 20 -27 48 -41 77 -41 75 -39 55 -74 -12
-21 -23 -30 -33 -26 -38 14 -313 179 -317 191 -11 29 84 159 120 165 23 4 67
-5 89 -18z m681 -26 c6 -4 8 -11 3 -15 -5 -4 -11 -2 -13 5 -3 6 -9 12 -15 12
-6 0 -7 -7 -4 -16 3 -9 -3 -27 -13 -40 -13 -17 -21 -20 -24 -12 -3 8 -6 6 -6
-4 -1 -10 -9 -18 -18 -19 -11 0 -13 -3 -6 -6 19 -7 -42 -54 -61 -47 -22 8 -20
16 13 57 32 41 91 98 91 89 0 -4 8 5 17 18 17 24 18 24 22 5 2 -11 8 -23 14
-27z m2354 19 c7 3 13 2 12 -3 -1 -5 1 -17 5 -26 4 -10 6 -23 3 -30 -3 -8 -9
-1 -16 15 -6 15 -17 27 -23 26 -33 -4 -41 1 -28 16 9 10 17 12 23 6 5 -5 16
-7 24 -4z m83 -117 c5 0 11 6 14 13 3 8 8 6 17 -7 6 -10 20 -27 31 -38 20 -20
20 -20 -1 -13 -12 3 -21 2 -21 -3 0 -12 29 -24 40 -17 4 3 19 -18 33 -46 13
-28 27 -47 29 -42 3 4 4 3 2 -3 -1 -6 3 -17 9 -23 9 -9 8 -14 -3 -22 -11 -7
-7 -8 14 -3 21 5 27 4 22 -5 -4 -6 -3 -11 2 -11 9 0 32 -43 32 -62 0 -7 -5 -7
-14 1 -11 9 -15 9 -19 -1 -2 -7 -8 -9 -13 -5 -5 5 -1 14 9 21 26 19 21 28 -12
21 -24 -5 -30 -2 -36 17 -4 13 -6 31 -5 41 1 9 -3 17 -8 17 -5 0 -13 10 -17
23 -7 21 -7 21 -12 2 -3 -10 0 -21 6 -23 14 -5 15 -32 0 -32 -5 0 -7 -5 -3
-12 4 -6 3 -9 -2 -5 -5 3 -9 28 -9 55 0 45 -2 49 -23 49 -13 0 -31 8 -40 17
-11 10 -12 16 -4 16 7 0 12 -4 12 -10 0 -5 12 -10 28 -10 26 1 26 1 7 16 -11
8 -27 19 -35 25 -12 7 -12 10 -2 17 7 5 10 16 6 25 -9 23 -24 21 -24 -3 0 -11
-4 -20 -10 -20 -5 0 -9 3 -9 8 3 19 -2 33 -10 28 -5 -4 -6 4 -3 16 5 19 7 20
10 6 2 -10 7 -18 12 -18z m771 -38 c37 -21 59 -63 59 -112 0 -36 -6 -48 -40
-83 -35 -34 -43 -38 -54 -26 -28 29 -28 56 -1 77 34 27 34 69 -1 82 -36 14
-64 12 -123 -7 -56 -18 -111 -69 -111 -103 0 -33 36 -60 80 -60 30 0 42 -5 50
-21 19 -35 6 -49 -50 -49 -93 0 -142 47 -142 137 0 69 38 116 122 154 86 39
156 43 211 11z m-3369 -44 c4 -10 1 -19 -9 -22 -21 -9 -31 3 -13 14 12 7 12
12 2 22 -6 6 -12 7 -12 2 0 -6 -6 -18 -13 -29 -11 -14 -16 -15 -22 -5 -6 9 -4
11 4 6 8 -5 11 -3 9 6 -2 7 4 21 12 29 16 17 30 9 42 -23z m-3340 -119 c-2
-40 -7 -87 -12 -104 -5 -16 -12 -68 -15 -115 -7 -95 -16 -113 -54 -105 -14 3
-32 1 -39 -3 -18 -12 11 -36 36 -30 27 7 41 -21 28 -52 -9 -22 -16 -25 -41
-20 -16 4 -43 3 -60 -2 -16 -4 -43 -9 -60 -9 -31 -1 -25 -4 38 -14 50 -8 37
-25 -20 -25 -29 0 -58 8 -79 21 -21 12 -41 18 -54 14 -15 -5 -20 -2 -20 12 0
11 -5 24 -12 31 -17 17 -7 23 58 29 75 7 99 18 56 27 -18 3 -46 9 -62 12 -19
3 -30 12 -30 22 0 49 24 206 41 267 10 38 19 80 19 92 0 25 23 28 190 27 l95
0 -3 -75z m3264 51 c5 0 10 -6 12 -14 2 -9 -3 -16 -11 -16 -9 0 -17 -5 -19
-11 -2 -7 -4 4 -4 24 0 20 3 32 7 26 3 -6 10 -10 15 -9z m-3161 2 c6 -4 35
-40 64 -80 l52 -74 -13 -121 -13 -122 -45 -3 c-25 -1 -65 1 -90 6 -42 7 -45
10 -48 42 -2 19 2 62 8 95 7 33 16 100 20 148 10 104 29 135 65 109z m9113
-17 c2 -2 7 -27 11 -57 5 -29 11 -60 15 -69 8 -19 -2 -25 -68 -34 -49 -8 -81
6 -72 31 3 7 1 26 -4 43 -8 30 8 77 33 93 11 7 76 2 85 -7z m-5974 -71 c11
-28 6 -38 -9 -18 -8 10 -15 22 -15 27 0 13 18 7 24 -9z m-18 -51 c-6 -6 -45
37 -46 49 0 4 12 -4 26 -19 14 -14 23 -28 20 -30z m-50 -10 c-10 -10 -19 5
-10 18 6 11 8 11 12 0 2 -7 1 -15 -2 -18z m1735 -12 c187 -39 344 -105 509
-216 101 -68 228 -179 281 -247 l33 -41 -69 -64 c-39 -34 -73 -63 -76 -63 -4
0 -44 37 -90 83 -91 90 -223 189 -318 237 -201 101 -478 153 -648 121 -26 -5
-79 -15 -117 -21 -194 -35 -409 -154 -581 -322 -55 -54 -102 -98 -105 -98 -3
0 -36 29 -75 63 l-69 64 32 41 c18 22 65 71 105 108 229 212 517 346 812 378
80 8 282 -4 376 -23z m-2217 -36 c67 -18 121 -48 136 -75 14 -26 13 -93 -2
-125 -13 -29 -74 -65 -108 -65 -20 0 -61 9 -220 50 -56 15 -65 20 -68 41 -5
51 6 53 132 20 138 -37 191 -40 206 -12 28 53 3 72 -162 115 -127 34 -141 44
-119 84 11 21 2 22 205 -33z m3456 25 c0 -11 -4 -20 -10 -20 -5 0 -10 9 -10
20 0 11 5 20 10 20 6 0 10 -9 10 -20z m50 -23 c0 -5 -4 -5 -10 -2 -5 3 -10 14
-10 23 0 15 2 15 10 2 5 -8 10 -19 10 -23z m11 -26 c7 11 9 10 9 -7 0 -11 -3
-23 -6 -27 -9 -9 -44 16 -44 32 0 11 3 11 16 0 13 -10 17 -10 25 2z m29 -70
c-6 -12 -8 -26 -5 -31 3 -6 2 -10 -4 -10 -18 0 -21 17 -10 50 8 20 15 28 21
22 6 -6 6 -17 -2 -31z m659 -18 c27 -109 43 -194 39 -199 -3 -3 -18 -6 -34 -7
-25 -2 -29 2 -37 41 -4 23 -13 42 -18 42 -10 0 -192 -43 -259 -60 -40 -11 -47
-6 -52 35 -3 33 -9 31 197 79 100 23 100 23 98 52 -4 42 3 54 31 54 21 0 27
-7 35 -37z m-638 -3 c1 -5 3 -14 4 -20 1 -5 3 -19 4 -31 0 -11 5 -18 10 -14 5
3 13 0 17 -6 3 -6 1 -15 -6 -19 -10 -6 -9 -10 3 -16 19 -11 32 -70 18 -79 -7
-3 -11 3 -11 16 0 12 -10 30 -22 40 -11 11 -18 19 -13 19 4 0 2 6 -4 14 -14
17 -23 106 -10 106 5 0 10 -4 10 -10z m-21 -82 c0 -38 -5 -34 -13 10 -4 21 -3
31 3 27 6 -3 10 -20 10 -37z m-6058 -29 c15 -8 15 -12 2 -37 -7 -15 -14 -40
-14 -55 l0 -28 -86 5 c-47 2 -88 7 -91 10 -3 3 0 12 7 21 10 12 9 20 -5 41 -9
14 -14 29 -10 32 16 16 170 24 197 11z m2849 -12 c-10 -9 -11 -8 -5 6 3 10 9
15 12 12 3 -3 0 -11 -7 -18z m-1 -37 c0 -5 -4 -10 -10 -10 -5 0 -10 5 -10 10
0 6 5 10 10 10 6 0 10 -4 10 -10z m3311 -68 c-6 -2 -11 -13 -11 -25 0 -18 2
-19 10 -7 5 8 10 12 10 8 0 -3 3 -14 7 -24 5 -12 3 -15 -6 -9 -8 4 -17 2 -21
-5 -5 -8 -10 -1 -15 21 -5 22 -4 34 4 37 6 2 11 16 12 30 l0 27 10 -25 c7 -17
7 -26 0 -28z m-6401 23 c0 -9 -9 -15 -25 -15 -29 0 -34 16 -7 23 30 8 32 7 32
-8z m3056 -59 c-7 -11 -19 -22 -27 -25 -11 -3 -11 -1 -3 10 6 8 15 28 19 44 6
27 8 28 15 10 5 -12 3 -28 -4 -39z m1913 -1 c114 -32 222 -81 313 -142 83 -56
220 -181 216 -197 -2 -6 -34 -40 -72 -75 l-68 -63 -52 50 c-179 173 -399 262
-624 249 -118 -7 -202 -27 -307 -77 -95 -44 -157 -88 -236 -165 l-59 -57 -70
62 c-38 34 -70 69 -70 77 0 17 2 19 90 97 170 153 331 229 570 270 14 3 82 3
152 1 96 -3 148 -10 217 -30z m3779 -126 c2 -41 7 -78 12 -83 6 -6 10 -33 10
-60 0 -51 17 -219 45 -441 13 -103 19 -154 24 -224 1 -10 19 -12 79 -11 187 6
224 -1 201 -38 -19 -30 -38 -35 -65 -17 -24 16 -58 21 -52 8 2 -5 10 -20 17
-36 8 -15 12 -30 8 -33 -3 -3 -102 -6 -219 -5 -117 0 -463 -3 -768 -8 -512 -8
-841 -3 -857 13 -4 4 1 22 11 40 12 23 16 44 11 64 -4 20 -1 41 9 61 9 16 16
48 16 70 0 22 7 61 16 86 8 25 12 55 9 66 -4 11 -7 102 -7 202 0 100 -4 189
-8 197 -4 8 -4 41 -1 73 6 50 5 60 -11 72 -18 12 -17 14 14 26 27 11 166 14
736 15 l703 1 22 22 c12 11 26 20 32 18 5 -2 11 -37 13 -78z m-5700 62 c2 -1
-6 -13 -17 -27 -25 -32 -26 -44 -6 -44 17 0 20 -16 5 -25 -5 -3 -10 -16 -10
-27 0 -12 -3 -18 -7 -15 -3 4 -12 -1 -19 -11 -12 -15 -13 -14 -14 16 0 20 5
31 12 30 8 -2 13 9 14 27 1 85 2 85 42 76z m3374 -10 c-5 -3 -12 -13 -15 -21
-3 -9 -6 -4 -6 12 -1 21 3 26 15 21 9 -3 11 -9 6 -12z m-5202 -10 c25 -6 252
-12 505 -15 253 -3 472 -8 487 -12 l28 -6 -21 -26 c-13 -17 -18 -34 -14 -49 3
-13 1 -33 -6 -44 -6 -11 -8 -28 -4 -37 4 -9 8 -87 10 -173 2 -85 5 -159 6
-165 1 -5 -1 -21 -5 -36 -5 -18 -2 -34 10 -52 13 -22 15 -32 6 -51 -7 -15 -8
-26 -2 -30 31 -19 -8 -39 -41 -21 -13 7 -58 20 -99 30 -41 10 -90 29 -110 41
-71 45 -179 94 -236 108 -33 8 -74 21 -91 28 -28 11 -45 11 -115 -4 -46 -9
-100 -17 -121 -17 -21 0 -54 -7 -74 -15 -19 -8 -46 -15 -60 -15 -13 0 -51 -14
-84 -31 -55 -27 -105 -42 -274 -79 -27 -7 -66 -16 -85 -21 -19 -5 -57 -11 -85
-12 l-50 -2 0 130 c0 83 4 137 12 150 7 11 13 66 14 125 1 58 6 115 10 127 4
12 9 48 10 80 3 75 8 91 27 95 45 8 413 7 452 -1z m5220 -36 c0 -8 -4 -17 -10
-20 -6 -4 -10 5 -10 20 0 15 4 24 10 20 6 -3 10 -12 10 -20z m-3808 -42 c38
-34 13 -103 -37 -103 -58 0 -85 60 -45 100 24 24 57 26 82 3z m3798 -25 c0 -5
-7 -3 -15 6 -8 8 -15 18 -15 22 0 3 7 1 15 -6 8 -7 15 -17 15 -22z m30 -10 c0
-38 -5 -34 -13 10 -4 21 -3 31 3 27 6 -3 10 -20 10 -37z m452 5 c22 -20 23
-61 1 -85 -34 -38 -103 -11 -103 40 0 54 62 81 102 45z m-3895 -29 c-3 -3 -2
-17 3 -30 7 -18 6 -24 -5 -24 -18 0 -29 -90 -23 -179 3 -36 3 -56 1 -43 -3 12
-9 19 -15 16 -7 -5 -9 28 -6 107 3 73 9 114 16 117 7 2 12 12 12 23 0 10 5 19
12 19 6 0 9 -3 5 -6z m3433 -44 c0 -5 -4 -10 -10 -10 -5 0 -10 5 -10 10 0 6 5
10 10 10 6 0 10 -4 10 -10z m-1525 -146 c85 -33 186 -98 240 -154 l40 -41 -75
-69 -74 -68 -51 45 c-169 153 -416 150 -584 -6 l-44 -41 -74 66 c-82 73 -81
68 -13 132 83 76 208 142 310 162 25 5 92 7 150 5 86 -3 119 -9 175 -31z
m1529 14 c8 -32 7 -38 -4 -38 -13 0 -32 38 -25 50 10 17 22 11 29 -12z m-3465
-166 c1 -20 -3 -31 -9 -27 -5 3 -10 27 -9 53 0 35 3 42 9 27 5 -11 9 -35 9
-53z m3773 8 c29 -11 75 -20 101 -20 34 0 49 -4 54 -16 8 -21 -9 -30 -67 -37
-28 -3 -67 -18 -96 -36 -57 -36 -64 -38 -64 -11 0 13 13 28 35 41 19 12 35 25
35 29 0 10 -26 20 -50 20 -20 0 -30 17 -22 38 6 16 13 15 74 -8z m-307 -68
c-5 -14 -7 -14 -15 -2 -13 20 -12 33 0 25 6 -3 11 6 11 22 l2 28 4 -28 c3 -16
2 -36 -2 -45z m-3731 52 c12 -5 16 -21 16 -70 0 -57 -2 -64 -19 -64 -16 0 -20
8 -23 42 -2 33 -8 44 -22 46 -22 5 -36 -13 -36 -45 0 -14 -6 -23 -15 -23 -8 0
-15 9 -15 19 0 38 -11 51 -45 51 -34 0 -61 22 -50 40 7 11 182 14 209 4z m287
-21 c-8 -15 -10 -15 -11 -2 0 17 10 32 18 25 2 -3 -1 -13 -7 -23z m-11 -56 c0
-5 -4 -5 -10 -2 -5 3 -10 14 -10 23 0 15 2 15 10 2 5 -8 10 -19 10 -23z m3457
-49 c-3 -8 -6 -5 -6 6 -1 11 2 17 5 13 3 -3 4 -12 1 -19z m-3438 -27 c-8 -2
-7 -6 2 -12 8 -4 14 -22 15 -38 1 -17 -2 -28 -7 -26 -4 3 -7 -10 -6 -30 1 -20
7 -35 15 -35 6 0 12 -7 12 -15 0 -19 -5 -19 -24 1 -10 9 -16 33 -16 60 0 26
-4 43 -9 39 -6 -3 -9 3 -9 12 0 10 -3 26 -7 36 -4 10 -3 17 4 17 6 0 11 8 11
18 1 15 2 15 16 -3 10 -14 11 -21 3 -24z m3438 -13 c-3 -8 -6 -5 -6 6 -1 11 2
17 5 13 3 -3 4 -12 1 -19z m-3841 -9 c113 -20 131 -27 136 -54 6 -29 -1 -35
-62 -59 -67 -27 -144 -56 -147 -56 -2 0 -3 11 -3 24 0 16 7 27 20 31 14 4 20
15 20 36 0 24 -6 32 -30 40 -19 7 -30 18 -30 30 0 22 13 23 96 8z m4107 -13
c-5 -23 -2 -25 48 -30 30 -3 72 -7 94 -9 34 -2 41 -6 43 -26 l4 -24 -101 7
c-98 7 -101 7 -101 -13 0 -15 -6 -21 -21 -21 -20 0 -21 3 -14 63 8 73 10 77
34 77 14 0 17 -6 14 -24z m-1902 -64 c73 -38 109 -90 116 -170 13 -142 -81
-246 -222 -246 -105 0 -180 57 -211 161 -13 40 -13 58 -3 105 30 148 186 220
320 150z m-2027 -130 c9 -32 16 -64 16 -70 0 -18 -28 -15 -38 4 -10 17 -46 14
-157 -15 -45 -11 -42 -12 -47 13 -2 15 9 22 62 37 36 10 78 21 93 24 25 5 28
10 23 30 -5 21 2 31 25 34 4 1 14 -25 23 -57z m303 16 c-3 -8 -6 -5 -6 6 -1
11 2 17 5 13 3 -3 4 -12 1 -19z m3644 3 c30 -5 75 -12 102 -16 38 -5 47 -10
47 -26 0 -23 -29 -25 -130 -9 -90 15 -100 19 -100 41 0 22 6 22 81 10z m2511
-43 c-13 -13 -26 8 -17 30 6 16 7 16 17 -1 7 -13 7 -22 0 -29z m-6205 0 c-3
-7 -5 -2 -5 12 0 14 2 19 5 13 2 -7 2 -19 0 -25z m49 -106 c-3 -3 -6 2 -6 11
0 8 -5 17 -11 19 -6 2 -7 11 -3 23 7 17 9 15 17 -14 4 -18 6 -36 3 -39z m3575
17 c-15 -54 -13 -69 8 -69 12 0 24 7 27 15 9 23 69 56 90 49 61 -22 81 -80 43
-128 -26 -33 -70 -37 -62 -5 3 11 12 23 19 26 19 7 18 49 -1 57 -9 3 -31 -8
-54 -29 -55 -50 -107 -44 -126 15 -9 28 23 92 44 87 9 -2 14 -10 12 -18z
m-3831 -37 c0 -13 -13 -24 -40 -35 -38 -15 -39 -16 -29 -45 11 -31 20 -32 81
-7 11 4 20 0 27 -13 11 -21 19 -16 -129 -76 -78 -31 -86 -32 -93 -6 -4 16 4
24 39 39 26 12 42 25 40 33 -15 51 -11 48 -62 31 -39 -13 -48 -13 -55 -2 -17
27 -17 27 131 78 71 25 90 26 90 3z m320 -107 c0 -28 -15 -34 -24 -9 -3 8 -2
12 4 9 6 -3 10 1 10 9 0 9 2 16 5 16 3 0 5 -11 5 -25z m3494 -66 c14 -11 26
-27 26 -34 0 -9 17 -16 45 -21 48 -7 58 -14 50 -36 -4 -9 -21 -12 -58 -10 -48
3 -51 2 -33 -13 11 -8 25 -15 32 -15 18 0 34 -24 25 -39 -7 -11 -21 -8 -72 12
-102 41 -159 67 -159 74 0 11 43 78 58 91 23 18 56 15 86 -9z m-3457 5 c-3 -3
-12 -4 -19 -1 -8 3 -5 6 6 6 11 1 17 -2 13 -5z m-257 -80 c17 -38 19 -49 8
-55 -20 -13 -22 -12 -41 21 -15 25 -21 28 -37 20 -17 -9 -18 -14 -8 -35 9 -20
9 -28 -1 -38 -10 -9 -15 -8 -26 7 -8 10 -16 23 -18 29 -2 6 -11 5 -25 -2 -18
-9 -21 -17 -16 -34 12 -36 10 -51 -6 -54 -21 -4 -74 93 -57 104 34 22 191 91
198 88 3 -3 17 -26 29 -51z m280 6 c0 -5 -2 -10 -4 -10 -3 0 -8 5 -11 10 -3 6
-1 10 4 10 6 0 11 -4 11 -10z m60 -65 c0 -7 5 -15 12 -17 6 -2 9 -11 6 -18 -3
-10 -10 -5 -21 17 -19 37 -21 47 -7 38 6 -3 10 -12 10 -20z m3230 -44 c0 -9
-7 -25 -15 -35 -37 -49 6 -73 45 -27 19 23 29 28 40 21 13 -8 12 -13 -3 -40
-15 -25 -16 -34 -7 -45 19 -22 32 -18 62 17 21 26 29 30 39 21 14 -14 5 -38
-36 -88 l-22 -29 -84 48 c-120 69 -116 63 -79 129 21 38 36 54 46 50 8 -3 14
-13 14 -22z m-4494 -8 c-2 -9 -8 -19 -14 -21 -6 -2 -8 5 -5 17 6 25 22 28 19
4z m4134 -7 c0 -2 -6 -9 -14 -15 -11 -9 -16 -9 -22 0 -4 7 -3 9 4 5 6 -3 13
-2 17 4 6 10 15 14 15 6z m-3112 -33 c28 -42 31 -56 17 -91 -15 -35 -48 -48
-95 -39 -24 5 -33 1 -50 -23 -23 -33 -47 -39 -57 -14 -3 9 5 26 21 43 39 41
34 58 -11 31 -33 -20 -37 -20 -52 -5 -19 20 -12 25 98 87 81 45 104 46 129 11z
m3426 -180 c36 -48 66 -93 66 -99 0 -6 -6 -17 -14 -23 -10 -9 -37 -3 -117 25
-57 21 -107 40 -111 43 -4 3 0 14 7 25 14 18 16 18 57 1 50 -20 98 -35 98 -30
0 2 -20 27 -44 56 -37 44 -42 56 -33 71 7 10 15 18 18 18 3 0 36 -39 73 -87z
m-4517 31 c-3 -3 -12 -4 -19 -1 -8 3 -5 6 6 6 11 1 17 -2 13 -5z m6758 -39
c25 -11 33 -11 50 1 28 21 55 18 55 -6 0 -21 24 -27 50 -10 10 6 20 4 31 -6
11 -10 19 -12 24 -5 15 25 25 7 25 -45 0 -51 -2 -56 -20 -51 -11 3 -23 0 -26
-5 -5 -7 9 -8 41 -4 57 9 125 -16 125 -45 0 -9 -20 -35 -45 -57 -25 -22 -45
-42 -45 -45 0 -2 9 -7 21 -10 20 -5 20 -7 5 -29 -33 -46 -17 -69 57 -82 20 -4
37 -9 37 -11 0 -13 -42 -45 -59 -45 -11 0 -21 -5 -23 -10 -4 -12 -98 -16 -478
-25 -129 -2 -336 -7 -460 -10 -436 -10 -719 -14 -1052 -15 -294 0 -338 -2
-338 -15 0 -8 10 -25 22 -37 21 -21 22 -34 29 -232 4 -116 10 -229 13 -251 9
-67 16 -449 8 -460 -4 -5 -18 -10 -32 -10 -16 0 -26 -6 -28 -19 -3 -16 1 -18
27 -14 31 5 41 -5 41 -42 0 -14 -10 -19 -47 -24 -27 -3 -55 -5 -63 -4 -46 4
-120 -3 -115 -12 3 -6 19 -10 35 -10 30 0 80 -18 80 -29 0 -4 10 -17 23 -31
23 -26 40 -49 82 -112 19 -29 25 -51 25 -95 l0 -57 -59 62 c-32 34 -61 62 -65
62 -13 0 -5 -16 24 -49 17 -18 30 -36 30 -40 0 -3 15 -23 34 -44 27 -32 35
-50 40 -99 3 -33 4 -63 1 -68 -5 -8 -85 64 -85 77 0 9 -36 43 -45 43 -13 0 -3
-28 18 -50 53 -60 87 -119 87 -152 0 -19 -3 -37 -6 -40 -8 -9 -72 36 -97 69
-39 50 -51 63 -59 63 -18 0 -5 -25 32 -62 43 -43 59 -83 42 -100 -7 -7 -14 -4
-21 11 -13 24 -41 28 -41 6 0 -23 -29 -18 -39 8 -5 12 -32 43 -60 69 -28 27
-63 66 -77 88 -15 22 -31 40 -35 40 -5 0 -9 5 -9 10 0 6 -22 41 -50 77 -46 61
-50 70 -50 121 l0 55 95 -99 c52 -54 94 -105 95 -111 0 -7 7 -13 15 -13 8 0
15 -6 15 -14 0 -8 5 -18 10 -21 22 -13 8 22 -20 53 -16 18 -30 35 -30 38 0 3
-11 15 -25 28 -14 13 -25 26 -25 30 0 8 -84 120 -107 144 -21 22 -38 91 -25
104 12 12 72 -7 72 -24 0 -5 18 -27 40 -48 22 -21 40 -33 40 -25 0 7 -7 18
-15 25 -8 7 -15 16 -15 21 0 5 -9 18 -21 30 -23 23 -21 44 6 44 10 0 20 6 22
13 3 7 -5 12 -21 12 -19 0 -29 7 -36 26 -13 33 -14 31 18 42 38 13 62 -1 62
-37 0 -29 37 -81 57 -81 9 0 11 22 9 73 -3 64 -6 72 -24 75 -12 2 -30 -2 -41
-8 -16 -8 -28 -7 -52 6 -21 10 -43 14 -65 9 -19 -3 -35 -5 -36 -3 -3 6 -19
392 -21 518 -2 102 1 131 15 160 10 19 30 67 46 105 30 75 139 219 174 231 13
4 17 11 13 25 -5 14 -2 19 12 19 10 0 39 21 63 47 54 57 140 170 140 184 0 5
16 24 35 42 19 17 35 36 35 41 0 5 11 24 25 42 14 18 25 37 25 43 0 16 40 39
90 50 27 7 281 14 645 17 330 4 602 8 605 11 2 2 112 3 244 2 169 -1 249 -5
271 -14z m-5484 -88 c23 -18 50 -63 42 -70 -13 -13 -35 -7 -52 15 -30 36 -51
18 -51 -46 0 -63 -16 -86 -61 -86 -37 0 -79 39 -79 73 0 38 27 41 39 6 8 -24
16 -30 33 -27 20 3 23 9 26 58 2 32 10 62 19 72 18 21 61 23 84 5z m3199 -157
c0 -4 -6 -13 -14 -20 -12 -9 -23 -4 -58 27 -24 22 -60 54 -80 73 -38 33 -49
65 -25 73 12 4 177 -138 177 -153z m-170 -10 c72 -80 81 -103 44 -117 -9 -3
-39 4 -68 16 -28 11 -55 21 -60 21 -5 0 8 -20 29 -45 34 -42 41 -75 16 -75
-10 0 -141 133 -155 157 -5 10 -2 21 11 35 20 19 20 19 78 -7 32 -14 60 -23
63 -20 3 3 -12 23 -33 45 -32 33 -36 42 -25 55 7 8 16 15 20 15 4 0 40 -36 80
-80z m-2875 0 c20 -22 23 -15 -45 -138 -25 -45 -50 -82 -55 -82 -22 0 -34 22
-24 43 9 16 6 24 -14 44 -21 22 -27 23 -45 12 -18 -12 -24 -11 -38 2 -14 15
-13 18 14 38 17 11 33 21 36 21 3 0 34 18 68 40 35 22 68 40 74 40 6 0 19 -9
29 -20z m150 -121 c58 -44 61 -49 44 -66 -9 -9 -18 -8 -35 3 -22 15 -24 13
-79 -60 -32 -42 -61 -76 -65 -76 -4 0 -13 7 -20 15 -11 13 -9 19 7 38 11 12
37 46 57 75 37 50 38 54 21 72 -17 18 -13 40 6 40 5 0 34 -19 64 -41z m2525
-34 c53 -78 60 -107 35 -142 -19 -27 -79 -40 -101 -22 -18 15 -103 126 -110
143 -3 7 3 19 12 27 14 12 19 11 33 -9 59 -83 95 -122 111 -122 37 0 32 23
-19 97 -51 72 -58 103 -27 103 9 0 38 -34 66 -75z m3077 33 c-3 -8 -6 -5 -6 6
-1 11 2 17 5 13 3 -3 4 -12 1 -19z m-5462 -91 c19 -14 13 -37 -8 -37 -13 0
-77 -103 -77 -123 0 -6 7 -18 15 -27 14 -15 14 -19 1 -29 -12 -11 -20 -8 -41
13 -14 14 -25 33 -25 43 0 23 91 173 105 173 6 0 19 -6 30 -13z m630 3 c-3 -5
-13 -10 -21 -10 -8 0 -14 5 -14 10 0 6 9 10 21 10 11 0 17 -4 14 -10z m438
-47 c-7 -2 -19 -2 -25 0 -7 3 -2 5 12 5 14 0 19 -2 13 -5z m-140 -10 c-7 -2
-21 -2 -30 0 -10 3 -4 5 12 5 17 0 24 -2 18 -5z m-763 -44 c0 -4 -16 -41 -35
-81 -41 -89 -64 -113 -100 -104 -30 8 -33 24 -5 34 23 9 80 112 80 146 0 12 3
25 6 29 7 7 54 -13 54 -24z m1868 8 c2 -9 -8 -21 -25 -29 -17 -8 -28 -21 -28
-33 0 -16 10 -21 50 -28 27 -4 55 -13 62 -19 14 -11 17 -66 5 -83 -13 -19 -61
-45 -82 -45 -32 0 -24 33 13 50 48 23 41 43 -18 52 -100 14 -117 96 -30 142
35 18 49 16 53 -7z m-1736 -61 c19 -8 40 -22 48 -31 18 -21 7 -79 -25 -126
-14 -21 -25 -50 -25 -64 0 -27 -18 -33 -38 -13 -14 14 -16 68 -3 68 5 0 21 23
35 52 19 39 23 55 15 65 -10 11 -39 19 -39 10 0 -15 -60 -172 -66 -174 -5 -1
-16 1 -23 6 -13 8 -10 26 20 115 37 114 40 117 101 92z m1552 -27 c57 -45 77
-158 36 -199 -49 -49 -126 -11 -150 74 -15 55 -6 100 27 126 33 25 54 25 87
-1z m-1375 -38 c11 -7 11 -15 1 -47 -30 -92 -39 -121 -45 -147 -4 -22 -11 -28
-28 -25 -26 4 -26 11 10 128 33 110 33 109 62 91z m1195 -111 c31 -112 31
-116 9 -124 -22 -9 -28 0 -43 59 -6 28 -19 72 -27 99 -15 46 -15 50 3 63 10 7
21 10 25 6 3 -5 18 -51 33 -103z m-4257 68 c-3 -7 -5 -2 -5 12 0 14 2 19 5 13
2 -7 2 -19 0 -25z m3192 3 c11 -11 25 -45 31 -76 6 -31 14 -54 17 -52 3 3 10
29 17 59 9 43 16 54 34 56 25 4 27 -7 13 -71 -5 -23 -15 -68 -21 -100 -11 -54
-13 -58 -38 -55 -26 3 -38 27 -57 113 -8 37 -19 20 -30 -43 -7 -43 -28 -63
-46 -45 -7 7 -5 40 6 99 24 136 35 154 74 115z m901 -11 c25 -13 35 -70 20
-114 -10 -32 -9 -39 10 -63 l21 -28 -21 -9 c-18 -8 -25 -6 -37 9 -47 65 -44
63 -40 22 2 -30 -1 -41 -16 -48 -10 -6 -20 -9 -22 -7 -9 8 -46 211 -41 223 8
22 94 32 126 15z m-5195 -9 c3 -5 1 -12 -5 -16 -5 -3 -10 1 -10 9 0 18 6 21
15 7z m7518 -12 c-6 -6 -18 -6 -28 -3 -18 7 -18 8 1 14 23 9 39 1 27 -11z
m-5673 1 c0 -5 -4 -10 -10 -10 -5 0 -10 5 -10 10 0 6 5 10 10 10 6 0 10 -4 10
-10z m2761 -19 c26 -26 29 -36 29 -91 0 -57 -3 -65 -34 -96 -42 -42 -69 -43
-107 -5 -24 25 -29 37 -29 81 0 57 18 101 52 124 33 23 56 20 89 -13z m391
-53 c3 -117 1 -131 -22 -150 -24 -20 -71 -23 -100 -8 -26 14 -40 63 -40 146 0
67 2 74 20 74 22 0 27 -16 33 -108 4 -70 18 -93 45 -76 14 10 16 25 13 103
l-3 91 26 0 c25 0 26 -2 28 -72z m-3185 20 c-3 -7 -5 -2 -5 12 0 14 2 19 5 13
2 -7 2 -19 0 -25z m-490 -64 c-3 -3 -12 -4 -19 -1 -8 3 -5 6 6 6 11 1 17 -2
13 -5z m490 -41 c-3 -10 -5 -2 -5 17 0 19 2 27 5 18 2 -10 2 -26 0 -35z m5730
15 c-3 -8 -6 -5 -6 6 -1 11 2 17 5 13 3 -3 4 -12 1 -19z m-5727 -88 c0 -5 -7
-7 -15 -4 -8 4 -15 8 -15 10 0 2 7 4 15 4 8 0 15 -4 15 -10z m2769 -279 c61
-58 54 -56 131 -31 62 20 72 21 92 8 13 -8 44 -22 70 -32 26 -10 56 -30 66
-44 21 -30 53 -160 42 -167 -5 -3 -92 -4 -194 -4 -177 1 -187 2 -201 22 -8 12
-15 27 -15 35 0 7 -11 28 -24 45 -13 18 -26 46 -30 62 -4 17 -9 38 -12 48 -8
27 19 20 38 -10 l17 -28 1 31 c0 16 -5 35 -11 41 -7 7 -9 22 -4 40 4 17 9 22
12 14 3 -7 13 -21 22 -30z m3038 14 c6 -2 13 -14 15 -27 2 -19 11 -24 43 -28
33 -4 39 -8 37 -25 -2 -11 -6 -22 -9 -25 -7 -7 -511 -13 -539 -6 -35 9 -30 27
21 69 l45 38 137 0 c76 0 147 4 158 9 18 7 59 5 92 -5z m-5622 -40 c146 -3
153 -4 198 -32 48 -29 60 -56 30 -68 -21 -7 -456 -6 -521 3 -39 4 -43 7 -40
31 3 22 9 26 40 29 26 2 41 10 53 29 14 22 21 24 52 18 20 -3 104 -8 188 -10z
m5119 -100 c-4 -8 -8 -15 -10 -15 -2 0 -4 7 -4 15 0 8 4 15 10 15 5 0 7 -7 4
-15z m-4820 -30 c3 -8 1 -15 -4 -15 -6 0 -10 7 -10 15 0 8 2 15 4 15 2 0 6 -7
10 -15z m400 -126 l14 -21 11 21 c15 26 65 28 115 4 29 -13 40 -14 61 -5 14 7
50 12 79 12 45 0 54 -3 59 -20 7 -28 -22 -57 -65 -64 -35 -6 -38 -5 -46 25 -8
34 -32 52 -32 25 0 -12 -10 -16 -35 -16 -35 0 -36 -1 -30 -34 5 -26 2 -38 -17
-59 -12 -14 -34 -40 -48 -57 -73 -91 -75 -93 -122 -85 -24 4 -46 9 -51 12 -4
2 11 25 34 51 22 26 48 59 57 74 9 16 19 28 22 28 4 0 15 6 25 14 18 13 18 15
1 40 -13 21 -20 25 -30 17 -21 -18 -110 -9 -114 10 -9 46 83 68 112 28z m2301
-29 c4 -12 2 -34 -5 -50 -11 -26 -14 -28 -41 -18 -16 6 -42 8 -57 5 -15 -3
-35 -1 -46 5 -10 6 -37 11 -60 12 -31 1 -42 5 -44 19 -8 38 2 42 126 45 115 3
121 2 127 -18z m-350 -1 c10 -15 -4 -64 -15 -53 -5 5 -12 21 -15 37 -6 21 -4
27 8 27 9 0 19 -5 22 -11z m1672 -26 c-3 -10 -5 -4 -5 12 0 17 2 24 5 18 2 -7
2 -21 0 -30z m-3702 -23 c4 -7 12 -7 24 0 21 11 31 4 31 -19 0 -15 -89 -111
-103 -111 -15 0 -6 92 11 115 19 27 28 30 37 15z m349 -16 c24 -9 19 -39 -9
-54 -14 -7 -25 -16 -25 -19 0 -3 -15 -22 -33 -42 -17 -21 -43 -52 -57 -70 -14
-18 -31 -38 -37 -45 -7 -7 -13 -19 -13 -26 0 -15 91 81 202 214 13 15 34 29
48 30 24 3 25 1 22 -41 -3 -40 -31 -92 -66 -126 -6 -5 -30 -35 -53 -65 -23
-30 -55 -68 -72 -84 -17 -17 -31 -33 -31 -37 0 -8 -14 -25 -86 -104 -20 -22
-48 -56 -62 -77 -26 -40 -46 -48 -56 -23 -3 10 1 18 12 22 42 17 68 64 76 140
3 33 15 67 30 90 14 20 23 39 20 42 -3 3 -8 1 -12 -4 -4 -6 -17 -18 -29 -29
-22 -18 -23 -18 -33 5 -5 13 -16 32 -22 42 -11 15 -10 20 5 31 9 7 17 18 17
24 0 9 18 31 103 126 15 17 27 38 27 48 0 11 7 18 19 18 11 0 23 5 26 10 7 11
64 14 89 4z m3819 -29 c6 -11 11 -40 12 -65 1 -25 0 -37 -2 -27 -3 9 -10 17
-17 17 -11 0 -21 8 -70 59 -24 26 -13 40 30 38 24 -2 40 -9 47 -22z m-2137
-53 c3 -6 3 -28 0 -47 -5 -25 -11 -33 -22 -28 -10 4 -14 18 -13 47 1 22 0 46
-1 51 -1 6 -2 17 -1 25 1 14 13 -2 37 -48z m188 45 c16 -12 17 -16 5 -35 -8
-12 -24 -22 -36 -22 -20 0 -23 -5 -23 -35 0 -19 2 -35 4 -35 2 0 11 -3 20 -6
12 -5 16 0 16 21 0 33 29 85 48 85 7 0 23 7 36 16 16 10 26 12 31 5 3 -7 -3
-11 -15 -11 -20 0 -21 -4 -16 -47 6 -58 -11 -113 -35 -113 -15 0 -46 -57 -36
-66 10 -10 46 11 49 29 2 11 9 22 16 25 14 4 17 -54 3 -62 -5 -3 -7 -23 -4
-45 3 -23 1 -41 -6 -45 -18 -11 -13 -24 12 -28 19 -3 22 -10 25 -58 2 -30 -2
-64 -9 -78 -11 -19 -11 -25 1 -32 25 -15 37 -69 26 -112 -6 -21 -14 -38 -18
-38 -4 0 -8 -8 -8 -17 0 -14 2 -15 9 -4 12 19 48 5 55 -22 3 -12 6 -35 6 -51
0 -16 8 -34 17 -41 16 -12 16 -14 -2 -41 -32 -49 -68 -68 -78 -41 -2 6 -3 -1
-1 -18 3 -16 11 -33 19 -38 8 -4 15 -12 15 -17 0 -14 -77 -12 -86 1 -4 8 -9 8
-17 0 -6 -6 -35 -11 -64 -11 -57 0 -65 9 -38 47 13 18 13 22 0 33 -11 9 -13
45 -10 193 2 100 3 187 3 192 0 23 0 351 1 365 0 8 -2 36 -5 61 -10 84 37 135
90 96z m-229 -123 c24 -9 42 -63 40 -117 -2 -54 -6 -60 -29 -51 -30 12 -45 56
-39 117 3 32 7 57 9 57 1 0 10 -3 19 -6z m-1545 -66 c0 -48 -4 -58 -48 -112
-26 -32 -51 -66 -57 -74 -5 -8 -17 -23 -25 -32 -8 -9 -31 -36 -50 -60 -67 -84
-104 -121 -132 -136 -15 -8 -28 -21 -28 -30 0 -33 -19 -1 -26 43 -5 34 -3 49
7 57 8 6 30 31 49 56 19 25 40 49 47 53 7 4 13 13 13 18 0 10 25 39 141 164
31 33 64 70 75 83 28 33 34 27 34 -30z m1550 -140 c31 -42 36 -150 8 -156 -10
-2 -18 3 -18 10 0 8 -11 29 -25 48 -27 37 -34 97 -13 118 17 17 22 16 48 -20z
m-1552 -40 c-1 -50 -13 -80 -48 -120 -8 -9 -28 -34 -45 -56 -42 -55 -93 -92
-127 -92 -49 0 -37 47 30 118 52 55 82 90 82 96 0 8 93 103 102 105 4 0 6 -23
6 -51z m3328 -34 c88 -101 110 -129 122 -156 6 -16 7 -28 2 -28 -5 0 -12 -16
-16 -35 -7 -40 -19 -39 -27 3 -4 20 -16 34 -39 45 -18 9 -51 41 -73 72 -34 47
-40 64 -40 105 0 30 5 50 11 50 6 0 33 -25 60 -56z m-1802 -89 c37 -28 53 -74
51 -145 -1 -61 -22 -62 -60 -2 -54 87 -59 100 -46 128 6 14 9 30 6 35 -12 18
17 9 49 -16z m4339 -21 c7 -7 -27 -71 -54 -100 -10 -11 -19 -26 -19 -32 0 -7
-4 -12 -10 -12 -5 0 -10 -9 -10 -20 0 -11 -7 -20 -15 -20 -8 0 -15 7 -15 16 0
36 32 124 55 148 22 24 54 34 68 20z m-5868 -21 c-3 -10 -11 -39 -16 -65 -11
-52 -30 -73 -57 -66 -15 4 -17 0 -14 -23 5 -31 -14 -41 -24 -14 -5 11 -10 13
-19 5 -13 -11 -25 -4 -25 16 0 14 26 47 93 115 48 50 75 63 62 32z m-505 -25
c0 -4 15 -15 33 -24 38 -19 76 -62 77 -86 0 -9 10 -25 23 -35 22 -17 24 -26
24 -120 1 -56 4 -107 8 -113 4 -6 -1 -17 -11 -25 -18 -12 -17 -14 9 -26 23
-10 27 -17 22 -38 -3 -14 -9 -51 -15 -83 -11 -69 -28 -100 -52 -92 -10 3 -18
1 -18 -5 0 -6 4 -11 9 -11 21 0 52 -142 33 -154 -14 -9 -28 13 -42 64 -6 25
-21 65 -33 90 -16 34 -22 68 -25 140 -2 52 -7 110 -12 128 -5 19 -4 46 1 67 9
30 14 35 39 35 17 0 30 5 30 10 0 6 -13 10 -30 10 -19 0 -33 7 -40 20 -6 11
-18 20 -26 20 -17 0 -63 -49 -64 -67 0 -7 -4 -13 -10 -13 -5 0 -10 -6 -10 -14
0 -24 -16 -27 -42 -7 -13 10 -43 25 -66 32 -37 11 -42 16 -37 33 4 12 11 44
16 71 25 136 22 130 54 132 17 0 40 2 53 2 12 1 22 6 22 12 0 7 9 27 21 45 18
29 23 32 40 21 10 -6 19 -15 19 -19z m3813 -35 c-3 -7 0 -20 7 -28 10 -12 9
-16 -3 -21 -9 -3 -21 -3 -26 0 -14 9 -25 72 -16 93 6 16 8 15 25 -6 10 -14 16
-31 13 -38z m-1122 -33 c-2 -35 -6 -48 -12 -39 -10 16 -12 83 -3 92 14 14 19
-3 15 -53z m3842 21 c9 -20 17 -46 17 -56 0 -15 -6 -12 -30 15 -28 34 -37 60
-23 73 12 12 18 7 36 -32z m-44 -54 c47 -61 55 -80 59 -124 2 -29 2 -53 -2
-53 -10 0 -97 96 -112 125 -14 28 -20 125 -6 124 4 0 31 -32 61 -72z m-4479
-4 c13 -18 28 -33 35 -33 23 0 50 -148 31 -178 -12 -20 -20 -14 -49 38 -16 27
-48 70 -73 95 -46 47 -54 74 -29 95 8 7 15 21 15 32 0 18 1 18 24 1 13 -10 34
-33 46 -50z m4369 -25 c1 -51 3 -132 5 -180 l4 -86 -59 1 c-32 1 -59 4 -59 8
0 3 13 23 30 45 30 40 38 64 20 64 -5 0 -10 10 -9 23 l0 22 10 -23 c5 -13 13
-20 19 -17 13 8 13 52 0 60 -5 3 -10 14 -10 23 0 10 -10 26 -22 36 l-22 19 21
17 c11 9 28 31 37 48 9 18 20 32 25 32 4 0 9 -42 10 -92z m-2379 62 c0 -11 -4
-20 -10 -20 -5 0 -10 9 -10 20 0 11 5 20 10 20 6 0 10 -9 10 -20z m-2065 -150
c-4 -11 -11 -18 -16 -15 -11 7 -12 48 -2 59 11 11 25 -23 18 -44z m1501 4 c-3
-8 -10 -14 -16 -14 -11 0 -14 43 -3 54 10 10 26 -23 19 -40z m-728 0 c4 -25
-22 -38 -37 -20 -15 18 -3 48 18 44 9 -2 17 -13 19 -24z m3742 -11 c11 -10 20
-21 20 -25 0 -4 16 -29 36 -55 25 -33 34 -53 30 -69 -4 -13 -2 -26 4 -29 9 -6
15 -45 6 -45 -2 0 -24 21 -50 46 -38 39 -49 58 -61 111 -21 92 -20 96 15 66z
m-2180 -24 c0 -5 -7 -9 -15 -9 -9 0 -15 9 -15 21 0 18 2 19 15 9 8 -7 15 -16
15 -21z m-100 7 c0 -7 16 -30 35 -50 19 -21 33 -42 30 -47 -4 -5 -23 -9 -44
-9 -37 0 -39 2 -43 37 -3 20 -2 47 0 60 5 25 22 32 22 9z m-3690 -12 c0 -8 -8
-22 -18 -32 -17 -17 -19 -17 -35 4 -25 33 -21 42 18 42 23 0 35 -5 35 -14z
m3326 -2 c7 -10 30 -24 53 -30 38 -12 61 -35 61 -62 0 -11 -29 -9 -82 6 -29 8
-75 104 -50 104 4 0 12 -8 18 -18z m41 -4 c-3 -8 -6 -5 -6 6 -1 11 2 17 5 13
3 -3 4 -12 1 -19z m-3457 -74 c0 -2 -9 -4 -21 -4 -11 0 -18 4 -14 10 5 8 35 3
35 -6z m1680 -33 c5 -11 10 -29 10 -40 0 -18 -6 -21 -50 -21 -58 0 -63 11 -23
52 31 33 48 35 63 9z m4400 -67 c0 -8 -4 -14 -10 -14 -5 0 -10 9 -10 21 0 11
5 17 10 14 6 -3 10 -13 10 -21z m-6590 -86 c0 -26 -2 -28 -20 -18 -19 10 -27
49 -13 63 12 13 33 -15 33 -45z m0 -85 c0 -35 -3 -44 -10 -33 -16 25 -11 80 7
80 2 0 3 -21 3 -47z m-70 -9 c0 -13 -4 -24 -10 -24 -5 0 -10 -13 -10 -28 0
-16 -6 -36 -13 -46 -12 -17 -14 -16 -25 8 -12 26 1 86 18 86 5 0 12 9 15 20 8
26 25 16 25 -16z m70 -69 c28 -14 30 -20 29 -68 0 -44 -2 -49 -12 -33 -7 10
-22 31 -34 46 -21 25 -32 70 -18 70 4 0 19 -7 35 -15z m-113 -107 c-3 -8 -6
-5 -6 6 -1 11 2 17 5 13 3 -3 4 -12 1 -19z m5426 -38 c3 -13 0 -20 -9 -20 -8
0 -14 9 -14 20 0 11 4 20 9 20 5 0 11 -9 14 -20z m-5256 -47 c-3 -2 -20 -3
-39 -1 l-33 4 27 11 c14 7 30 18 35 25 6 9 9 7 11 -10 2 -13 1 -26 -1 -29z
m-108 1 c2 -2 -12 -4 -32 -4 -30 0 -37 4 -37 20 0 20 1 20 33 4 17 -9 34 -18
36 -20z"/>
<path d="M5449 6757 c-60 -46 -78 -233 -24 -253 49 -19 88 27 104 124 17 109
-22 173 -80 129z"/>
<path d="M3690 6313 c0 -4 12 -38 26 -75 l27 -67 28 20 c16 11 31 24 34 29 3
4 -19 29 -49 54 -52 45 -66 53 -66 39z"/>
<path d="M4578 6183 c7 -3 16 -2 19 1 4 3 -2 6 -13 5 -11 0 -14 -3 -6 -6z"/>
<path d="M3110 5708 c-29 -31 -26 -40 24 -70 41 -25 45 -25 59 -10 25 30 27
50 6 76 -25 32 -61 33 -89 4z"/>
<path d="M3792 5708 c-7 -7 -12 -16 -12 -21 0 -5 7 -1 16 8 9 9 14 18 12 20
-2 3 -10 -1 -16 -7z"/>
<path d="M2946 4132 c-12 -19 11 -33 38 -22 15 5 24 14 21 20 -7 12 -52 13
-59 2z"/>
<path d="M6912 3618 c-18 -18 -15 -25 19 -37 42 -15 41 -15 37 17 -3 30 -34
42 -56 20z"/>
<path d="M3288 3396 c-23 -17 -23 -33 1 -46 34 -18 68 10 55 45 -7 18 -33 19
-56 1z"/>
<path d="M9258 2943 c7 -3 16 -2 19 1 4 3 -2 6 -13 5 -11 0 -14 -3 -6 -6z"/>
<path d="M6867 1533 c-3 -5 5 -19 19 -32 13 -13 24 -18 24 -12 0 17 -37 54
-43 44z"/>
<path d="M6920 1473 c0 -5 5 -15 10 -23 8 -12 10 -11 10 8 0 12 -4 22 -10 22
-5 0 -10 -3 -10 -7z"/>
<path d="M6785 1440 c3 -5 8 -10 11 -10 2 0 4 5 4 10 0 6 -5 10 -11 10 -5 0
-7 -4 -4 -10z"/>
<path d="M6955 1420 c-3 -5 -1 -10 4 -10 6 0 11 5 11 10 0 6 -2 10 -4 10 -3 0
-8 -4 -11 -10z"/>
<path d="M6810 1411 c0 -6 5 -13 10 -16 6 -3 10 1 10 9 0 9 -4 16 -10 16 -5 0
-10 -4 -10 -9z"/>
<path d="M6858 1353 c6 -2 12 -11 12 -19 0 -8 5 -14 11 -14 6 0 8 7 5 16 -3 9
-6 18 -6 20 0 2 -8 4 -17 3 -11 0 -13 -3 -5 -6z"/>
<path d="M6896 1312 c-3 -6 -1 -14 5 -17 15 -10 25 3 12 16 -7 7 -13 7 -17 1z"/>
<path d="M6925 1281 c-3 -6 1 -14 9 -17 9 -3 16 -12 16 -20 0 -8 5 -14 10 -14
16 0 12 19 -9 41 -12 13 -21 17 -26 10z"/>
<path d="M6870 1159 c0 -14 26 -39 40 -39 6 0 3 11 -7 25 -19 26 -33 32 -33
14z"/>
<path d="M3609 2921 c-19 -15 -21 -22 -12 -32 15 -15 38 1 46 31 6 25 -4 25
-34 1z"/>
<path d="M5773 2553 c-7 -18 12 -100 29 -120 14 -17 33 -16 48 2 10 13 11 24
1 58 -20 67 -63 100 -78 60z"/>
<path d="M5432 2428 c5 -23 11 -44 13 -47 12 -11 35 26 35 55 0 31 -3 34 -29
34 -29 0 -29 0 -19 -42z"/>
<path d="M4830 2430 c-6 -11 -10 -44 -8 -73 3 -45 6 -52 25 -55 30 -4 45 28
41 91 -3 45 -6 52 -25 55 -14 2 -26 -4 -33 -18z"/>
<path d="M5110 1294 c0 -8 5 -12 10 -9 6 3 10 10 10 16 0 5 -4 9 -10 9 -5 0
-10 -7 -10 -16z"/>
<path d="M5085 1270 c-3 -5 -1 -10 4 -10 6 0 11 5 11 10 0 6 -2 10 -4 10 -3 0
-8 -4 -11 -10z"/>
<path d="M5170 1183 c0 -5 -20 -30 -45 -58 -55 -62 -50 -72 8 -14 44 45 64 79
47 79 -6 0 -10 -3 -10 -7z"/>
<path d="M5187 1009 c-10 -11 -17 -28 -15 -37 2 -12 7 -9 21 12 23 34 18 54
-6 25z"/>
<path d="M5141 934 c0 -11 3 -14 6 -6 3 7 2 16 -1 19 -3 4 -6 -2 -5 -13z"/>
<path d="M5197 825 c-4 -8 -2 -17 3 -20 6 -4 10 3 10 14 0 25 -6 27 -13 6z"/>
<path d="M5140 751 c0 -25 6 -27 13 -6 4 8 2 17 -3 20 -6 4 -10 -3 -10 -14z"/>
<path d="M5105 710 c-3 -5 1 -10 10 -10 9 0 13 5 10 10 -3 6 -8 10 -10 10 -2
0 -7 -4 -10 -10z"/>
<path d="M5085 680 c-3 -5 -1 -10 4 -10 6 0 11 5 11 10 0 6 -2 10 -4 10 -3 0
-8 -4 -11 -10z"/>
<path d="M5193 633 c-20 -8 -15 -23 7 -23 11 0 20 7 20 15 0 15 -6 17 -27 8z"/>
<path d="M9607 6833 c-49 -5 -44 -27 6 -31 32 -3 37 0 37 17 0 12 -1 20 -2 19
-2 -1 -20 -3 -41 -5z"/>
<path d="M9018 6810 c-108 -3 -200 -8 -204 -12 -9 -10 585 -8 676 1 l65 7 -80
6 c-85 7 -144 6 -457 -2z"/>
<path d="M8263 6783 c-157 -3 -192 -6 -197 -18 -5 -13 7 -14 77 -10 45 3 212
8 370 11 158 4 286 8 283 11 -6 6 -308 10 -533 6z"/>
<path d="M7337 6753 c-128 -3 -167 -6 -164 -16 2 -6 17 -11 33 -10 44 2 428
11 619 13 120 2 158 5 130 11 -38 7 -249 8 -618 2z"/>
<path d="M2080 6608 c-289 -4 -788 -11 -1110 -16 -322 -5 -672 -10 -777 -11
-167 -1 -193 -3 -193 -16 0 -12 8 -15 33 -11 17 3 367 8 777 11 542 5 749 10
759 18 10 8 98 12 300 12 558 1 1094 5 1090 9 -10 8 -396 10 -879 4z"/>
<path d="M2 4870 c0 -19 2 -27 5 -17 2 9 2 25 0 35 -3 9 -5 1 -5 -18z"/>
<path d="M7720 1585 c-14 -8 -33 -14 -42 -15 -27 0 -40 -34 -26 -65 9 -20 9
-31 1 -45 -7 -10 -9 -28 -6 -40 3 -11 0 -32 -7 -45 -19 -36 4 -113 41 -134 39
-22 50 -50 34 -88 -7 -17 -9 -36 -5 -43 9 -14 30 -5 31 13 0 7 26 29 58 50 48
30 60 43 64 70 3 17 17 64 32 102 31 83 28 140 -12 193 -37 50 -118 73 -163
47z"/>
<path d="M7742 1028 c-15 -15 2 -38 28 -38 22 0 32 24 17 39 -14 14 -30 14
-45 -1z"/>
<path d="M7725 966 c-19 -14 -19 -15 18 -49 20 -20 37 -41 37 -47 0 -6 5 -8
10 -5 13 8 13 45 1 45 -6 0 -11 15 -13 32 -3 37 -23 46 -53 24z"/>
<path d="M7820 881 c0 -30 6 -44 22 -55 12 -8 25 -13 30 -10 13 9 9 58 -8 82
-25 36 -44 28 -44 -17z"/>
<path d="M7883 782 c-15 -10 -24 -95 -10 -88 7 3 20 9 30 12 11 4 17 17 17 39
0 32 -17 49 -37 37z"/>
<path d="M7766 549 c-22 -21 -18 -33 8 -23 9 3 16 15 16 25 0 23 0 23 -24 -2z"/>
<path d="M7720 490 c0 -11 5 -20 10 -20 6 0 10 9 10 20 0 11 -4 20 -10 20 -5
0 -10 -9 -10 -20z"/>
<path d="M7720 91 c-39 -7 -49 -34 -14 -39 29 -4 76 16 72 30 -5 15 -15 17
-58 9z"/>
</g>
</svg>
